<?xml version="1.0" encoding="UTF-8" standalone="no"?>
<!-- Created with Inkscape (http://www.inkscape.org/) -->

<svg
   xmlns:dc="http://purl.org/dc/elements/1.1/"
   xmlns:cc="http://creativecommons.org/ns#"
   xmlns:rdf="http://www.w3.org/1999/02/22-rdf-syntax-ns#"
   xmlns:svg="http://www.w3.org/2000/svg"
   xmlns="http://www.w3.org/2000/svg"
   xmlns:sodipodi="http://sodipodi.sourceforge.net/DTD/sodipodi-0.dtd"
   xmlns:inkscape="http://www.inkscape.org/namespaces/inkscape"
   width="16"
   height="16"
   viewBox="0 0 16 16"
   version="1.1"
   id="svg8"
   inkscape:version="0.92.5 (2060ec1f9f, 2020-04-08)">
  <defs
     id="defs2" />
  <sodipodi:namedview
     id="base"
     pagecolor="#ffffff"
     bordercolor="#666666"
     borderopacity="1.0"
     inkscape:pageopacity="0.0"
     inkscape:pageshadow="2"
     inkscape:zoom="22.4"
     inkscape:cx="6.0822221"
     inkscape:cy="9.2664335"
     inkscape:document-units="px"
     inkscape:current-layer="layer1"
     showgrid="true"
     units="px"
     showguides="false"
     inkscape:snap-global="false"
     inkscape:window-width="2560"
     inkscape:window-height="964"
     inkscape:window-x="0"
     inkscape:window-y="30"
     inkscape:window-maximized="1">
    <inkscape:grid
       type="xygrid"
       id="grid815" />
  </sodipodi:namedview>
  <metadata
     id="metadata5">
    <rdf:RDF>
      <cc:Work
         rdf:about="">
        <dc:format>image/svg+xml</dc:format>
        <dc:type
           rdf:resource="http://purl.org/dc/dcmitype/StillImage" />
        <dc:title></dc:title>
      </cc:Work>
    </rdf:RDF>
  </metadata>
  <g
     inkscape:label="Layer 1"
     inkscape:groupmode="layer"
     id="layer1"
     transform="translate(0,-292.76665)">
    <path
       style="fill:#666666;stroke:none;stroke-width:1px;stroke-linecap:butt;stroke-linejoin:miter;stroke-opacity:1;fill-opacity:1"
       d="M 9 0 L 7 3 L 2 1 L 4 7 L 0 12 L 5 12 L 5 16 L 9 13 L 15 15 L 11 9 L 16 7 L 10 6 L 9 0 z M 8.2871094 2.6699219 L 8.9277344 6.7695312 L 12.777344 7.4511719 L 9.5703125 8.8183594 L 12.134766 12.916016 L 8.2871094 11.550781 L 5.7207031 13.599609 L 5.7207031 10.867188 L 2.5136719 10.867188 L 5.078125 7.4511719 L 3.796875 3.3535156 L 7.0039062 4.71875 L 8.2871094 2.6699219 z "
       transform="translate(0,292.76665)"
       id="path817" />
    <path
       style="opacity:1;fill:#666666;fill-opacity:1;stroke:none;stroke-width:3;stroke-linecap:round;stroke-linejoin:round;stroke-miterlimit:4;stroke-dasharray:none;stroke-opacity:1"
       d="m 8.2589287,301.22202 a 1.1383928,1.1607143 0 0 1 -1.1383928,1.16071 1.1383928,1.1607143 0 0 1 -1.1383929,-1.16071 1.1383928,1.1607143 0 0 1 1.1383929,-1.16072 1.1383928,1.1607143 0 0 1 1.1383928,1.16072 z"
       id="path835" />
  </g>
</svg>
